<?xml version="1.0" encoding="utf-8"?>
<svg id="master-artboard" viewBox="0 0 1400 1400" data-name="Layer 1" xmlns="http://www.w3.org/2000/svg" width="1400px" height="1400px"><rect id="ee-background" x="0" y="0" width="1400" height="1400" style="fill: none; fill-opacity: 0; pointer-events: none;"/><title>Letter C Vintage</title><path d="M 0 0 H 1400 V 1400 H 0 V 0 Z" id="_Rectangle_" data-name="&lt;Rectangle&gt;" class="cls-1" style="fill: none;"/><path class="cls-2" d="M1131.82,521.46l-1.6-2.81-1.62-2.82-4-6.68-.68-1.11s-14.89-23-23.15-33.9L958.87,532l-29.49,12-10.51-15-.87-1.23-6.94-9.87c-.75-1.07-2.3-3.18-2.3-3.18L908,513.7c-72.59-100-219-118.26-315-42.3-45.61,36.09-76.36,89.5-83.47,147.33a224.23,224.23,0,0,0,9,94.75c8.91,28.12,25.31,65.84,49.56,84-4.56-24.06-12.13-46.14-12.55-71.22a218.86,218.86,0,0,1,11.1-72.92c34.26-102.62,147.45-166.77,253.11-143.14,27.12,6.07,53,17.85,76,33.36a218.43,218.43,0,0,1,31.86,26c2.16,2.14,23.16,28.06,23.38,28l182.17-74.11Z" style="fill: rgb(33, 32, 64);"/><path class="cls-3" d="M1119.75,342.51A540.81,540.81,0,0,0,1067.89,285C872.07,97.05,547.57,111.7,365,309.91,297.9,382.71,253.22,476,239.07,574c-.11.72-.22,1.44-.32,2.17-.16,1.13-.3,2.27-.46,3.41-.1.8-.22,1.6-.32,2.4-.16,1.24-.3,2.49-.45,3.73-.09.7-.18,1.39-.26,2.09-.22,1.95-.44,3.9-.64,5.85,3.61,3.76,10.72,11.07,11.13,11.48C308.37,667.5,374,723,442.54,776.25l2.79,2s24.83,16.73,24.62,17q8.24,5.49,16.39,10.67l1.05.67c2.37,1.5,4.73,3,7.08,4.43l1.94,1.19,2.15,1.31,1.87,1.14,2.32,1.42,2.69,1.6q2.85,1.71,5.69,3.37l3.4,2c1.68,1,3.36,1.94,5,2.88,1.4.8,2.79,1.57,4.19,2.35s2.85,1.6,4.27,2.38c1.8,1,3.59,1.95,5.38,2.91,1,.56,2.07,1.13,3.1,1.67,2.19,1.17,4.38,2.3,6.56,3.43,0,0,.05-.11.08-.16a11,11,0,0,1,.84-1.33C462,778.22,453,628,487.23,545.49c71.47-172.35,313.07-213.4,437.29-74.76.08-.29,5.68,6.1,5.36,6.15q7.32,8.72,13.9,18.05l218.75-89.47S1123.65,347.51,1119.75,342.51Z" style="fill: rgb(90, 199, 128);"/><path class="cls-4" d="M374.75,1046.69c-.3.66,0,1.19,1.5,1.31Z" style="fill: rgb(0, 172, 193);"/><path class="cls-5" d="M262.33,948.5l.06,0" style="fill: none; stroke: rgb(0, 172, 193); stroke-linecap: round; stroke-linejoin: round; stroke-width: 0;"/><path class="cls-4" d="M729.34,1140.89c1.08,0,2.15,0,3.23,0-2,0-3.91,0-5.87,0Z" style="fill: rgb(0, 172, 193);"/><path class="cls-6" d="M645.17,921.2q2.54.54,5.09,1Q647.71,921.74,645.17,921.2Z" style="fill: none;"/><path class="cls-6" d="M705.45,929.86c1.75.13,3.5.25,5.26.36C709,930.11,707.2,930,705.45,929.86Z" style="fill: none;"/><path class="cls-6" d="M652,922.59q3.31.64,6.66,1.25Q655.28,923.24,652,922.59Z" style="fill: none;"/><path class="cls-6" d="M659.81,924.05q2.79.51,5.59,1Q662.6,924.56,659.81,924.05Z" style="fill: none;"/><path class="cls-6" d="M696.9,929.14c2.27.22,4.54.41,6.81.59C701.44,929.55,699.17,929.36,696.9,929.14Z" style="fill: none;"/><path class="cls-6" d="M690,928.43c1.88.21,3.76.4,5.65.59C693.77,928.83,691.88,928.64,690,928.43Z" style="fill: none;"/><path class="cls-6" d="M682.56,927.54q2.69.35,5.39.66Q685.25,927.89,682.56,927.54Z" style="fill: none;"/><path class="cls-6" d="M674.28,926.41q3.38.5,6.77.94Q677.66,926.9,674.28,926.41Z" style="fill: none;"/><path class="cls-6" d="M637.36,919.5q2.91.66,5.84,1.29Q640.28,920.16,637.36,919.5Z" style="fill: none;"/><path class="cls-6" d="M615.16,913.91q3.17.87,6.38,1.71Q618.33,914.78,615.16,913.91Z" style="fill: none;"/><path class="cls-6" d="M630.09,917.79c2.16.52,4.33,1,6.51,1.54C634.42,918.83,632.25,918.31,630.09,917.79Z" style="fill: none;"/><path class="cls-6" d="M623.42,916.11q2.43.63,4.87,1.23Q625.85,916.74,623.42,916.11Z" style="fill: none;"/><path class="cls-6" d="M667.41,925.35l5.36.83Z" style="fill: none;"/><path class="cls-6" d="M771.84,929c1.7-.18,3.39-.38,5.09-.6C775.23,928.61,773.54,928.81,771.84,929Z" style="fill: none;"/><path class="cls-6" d="M764,929.76q3.22-.27,6.44-.61Q767.25,929.5,764,929.76Z" style="fill: none;"/><path class="cls-6" d="M779,928.12c1.53-.21,3.05-.43,4.58-.66C782.08,927.69,780.55,927.91,779,928.12Z" style="fill: none;"/><path class="cls-6" d="M785.54,927.17c2.12-.33,4.24-.68,6.34-1.06C789.78,926.49,787.66,926.84,785.54,927.17Z" style="fill: none;"/><path class="cls-6" d="M757.45,930.25l4.89-.36Z" style="fill: none;"/><path class="cls-6" d="M741.19,930.91c-1.88,0-3.78.06-5.67.06C737.41,931,739.31,931,741.19,930.91Z" style="fill: none;"/><path class="cls-6" d="M719.63,930.68c2.27.09,4.54.15,6.81.2C724.17,930.83,721.9,930.77,719.63,930.68Z" style="fill: none;"/><path class="cls-6" d="M750.53,930.62c1.59-.07,3.17-.15,4.76-.24C753.7,930.47,752.12,930.55,750.53,930.62Z" style="fill: none;"/><path class="cls-6" d="M728.34,930.91l5.15.06Z" style="fill: none;"/><path class="cls-6" d="M712.75,930.34c2,.11,4,.22,6.08.3C716.8,930.56,714.77,930.45,712.75,930.34Z" style="fill: none;"/><path class="cls-6" d="M742.12,930.9c2.19,0,4.36-.11,6.54-.19C746.48,930.79,744.31,930.86,742.12,930.9Z" style="fill: none;"/><path class="cls-4" d="M1081.62,1051.92a535.89,535.89,0,0,1-838.14-178.4c44.19,218.18,237.05,382.42,468.27,382.42,160.3,0,302.18-79,388.85-200.1a2.31,2.31,0,0,0,.19-.28,393.44,393.44,0,0,0,32.37-54.7l-.33-.13A539.07,539.07,0,0,1,1081.62,1051.92Z" style="fill: rgb(0, 172, 193);"/><path class="cls-3" d="M952.35,815.38,951.16,817s-2.08,2.82-3.19,4.29c.84-.25,1.22-.36,1.34-.38-.19.1-1.45.52-1.45.52l-9.46,11.78-.58.69S927,846.18,920.53,852.55c-33.62,33.26-81.92,65.12-128.65,73.56-2.1.38-4.22.73-6.34,1.06l-1.94.29c-1.53.23-3.05.45-4.58.66l-2.09.27c-1.7.22-3.39.42-5.09.6l-1.38.16q-3.21.35-6.44.61l-1.68.13-4.89.36-2.16.13c-1.59.09-3.17.17-4.76.24l-1.87.09c-2.18.08-4.35.15-6.54.19h-.93c-1.88,0-3.78.06-5.67.06h-2l-5.15-.06-1.9,0c-2.27,0-4.54-.11-6.81-.2l-.8,0c-2-.08-4.06-.19-6.08-.3l-2-.12c-1.76-.11-3.51-.23-5.26-.36l-1.74-.13c-2.27-.18-4.54-.37-6.81-.59l-1.25-.12c-1.89-.19-3.77-.38-5.65-.59l-2-.23q-2.7-.32-5.39-.66l-1.51-.19q-3.39-.45-6.77-.94l-1.51-.23-5.36-.83-2-.33q-2.8-.46-5.59-1l-1.19-.21q-3.35-.6-6.66-1.25l-1.7-.34q-2.55-.51-5.09-1l-2-.41q-2.93-.63-5.84-1.29l-.76-.17c-2.18-.5-4.35-1-6.51-1.54l-1.8-.45q-2.44-.6-4.87-1.23l-1.88-.49q-3.21-.84-6.38-1.71-3.36-.93-6.71-1.91c-98.13-28.67-186.32-88.28-265.55-156.27q-2.7-2.31-5.39-4.65Q324.07,739.43,311,727.51c-14-12.7-27.63-25.58-41-38.49q-5-4.85-10-9.69-7.46-7.27-14.78-14.54l-2.53-2.5Q238.33,658,234,653.6q.2,19.08,1.82,37.79.54,6.23,1.23,12.42t1.53,12.33q.84,6.15,1.83,12.24,1.49,9.14,3.3,18.17c26.62,132.38,106,245.67,215.24,317q2.49,1.62,5,3.21,5,3.18,10.09,6.25,2.55,1.55,5.11,3,10.26,6,20.82,11.55,2.64,1.38,5.29,2.73,8,4.07,16.12,7.83,2.71,1.26,5.44,2.49,5.46,2.44,11,4.77,19.37,8.13,39.52,14.64,5.76,1.86,11.57,3.57a495.58,495.58,0,0,0,140.67,20.25c166.28,0,313.44-81.89,403.34-207.55a3,3,0,0,0,.2-.29,408.37,408.37,0,0,0,33.57-56.74L962.88,798.66C958.18,806.14,952.35,815.38,952.35,815.38Z" style="fill: rgb(32, 124, 233);"/><path d="M 654.328369140625 399.1044921875 L 651.6417846679688 404.4776306152344" style="fill: rgb(33, 32, 64); fill-opacity: 1; stroke: rgb(0, 0, 0); stroke-opacity: 1; stroke-width: 0; paint-order: fill;"/></svg>